<svg xmlns="http://www.w3.org/2000/svg" xmlns:xlink="http://www.w3.org/1999/xlink" width="500" zoomAndPan="magnify" viewBox="0 0 375 374.999991" height="500" preserveAspectRatio="xMidYMid meet" version="1.0"><defs><clipPath id="2741dfb336"><path d="M 43 124 L 329 124 L 329 215 L 43 215 Z M 43 124 " clip-rule="nonzero"/></clipPath><clipPath id="309bd3639d"><path d="M 219.136719 330.210938 L 41.882812 197.800781 L 155.894531 45.183594 L 333.144531 177.59375 Z M 219.136719 330.210938 " clip-rule="nonzero"/></clipPath><clipPath id="a81dd2dd5b"><path d="M 219.136719 330.210938 L 41.882812 197.800781 L 155.894531 45.183594 L 333.144531 177.59375 Z M 219.136719 330.210938 " clip-rule="nonzero"/></clipPath><clipPath id="8d7532872f"><path d="M 155.484375 158.699219 L 164.484375 158.699219 L 164.484375 166.949219 L 155.484375 166.949219 Z M 155.484375 158.699219 " clip-rule="nonzero"/></clipPath></defs><g clip-path="url(#2741dfb336)"><g clip-path="url(#309bd3639d)"><g clip-path="url(#a81dd2dd5b)"><path fill="#154337" d="M 117.007812 156.84375 C 123.652344 155.863281 131.296875 155.167969 138.03125 155.367188 C 141.707031 155.484375 155.101562 157.917969 156.816406 157.554688 C 158.667969 157.148438 166.117188 151.859375 169.34375 150.496094 C 186.71875 143.160156 208.917969 144.457031 227.296875 146.84375 C 249.566406 149.734375 272.394531 154.484375 292.875 163.945312 L 288.59375 158.726562 C 279.578125 149.300781 267.425781 141.269531 258.882812 131.632812 C 257.078125 129.597656 254.78125 126.847656 257.976562 124.933594 C 259.625 124.300781 264.78125 126.988281 266.4375 128.035156 C 288.597656 141.945312 306.578125 161.867188 327.175781 177.769531 C 331.335938 184.132812 324.027344 189.449219 319.015625 192.363281 C 305.511719 194.027344 290.941406 194.558594 277.792969 197.941406 C 273.222656 199.117188 254.828125 206.320312 251.726562 205.117188 C 249.136719 204.109375 250.214844 202.089844 251.632812 200.484375 C 255.851562 195.703125 274.535156 189.511719 281.214844 187.617188 C 287.894531 185.71875 295.335938 184.410156 302.382812 182.894531 C 289.171875 173.554688 273.03125 167.878906 257.460938 163.875 C 234.761719 158.035156 203.15625 152.507812 180.246094 157.8125 C 179.101562 158.074219 171.019531 160.304688 171.207031 161.238281 C 183.566406 166.828125 206.585938 170.871094 204.464844 188.75 C 203.027344 200.855469 192.019531 211.378906 180.429688 214.28125 C 167.054688 217.625 147.238281 202.65625 143.15625 190.234375 C 140.089844 180.890625 143.726562 176.3125 146.695312 168.160156 C 146.957031 167.417969 148.101562 167 146.402344 166.390625 C 144.125 165.566406 131.683594 165.765625 128.480469 165.921875 C 100.628906 167.222656 66.535156 179.953125 47.707031 201.105469 C 41.480469 200.238281 44.03125 195.066406 46.539062 191.292969 C 58.023438 173.988281 96.945312 159.832031 117.011719 156.859375 Z M 165.734375 202.003906 C 172.460938 205.949219 179.855469 207.121094 186.808594 202.992188 C 194.21875 198.589844 201.523438 187.8125 192.355469 181.398438 C 187.089844 177.714844 166.617188 169.378906 160.339844 168.96875 C 155.445312 168.652344 151.011719 176.324219 150.042969 180.609375 C 148.480469 187.480469 160.339844 198.839844 165.75 202.003906 Z M 165.734375 202.003906 " fill-opacity="1" fill-rule="nonzero"/></g></g></g><g clip-path="url(#8d7532872f)"><path fill="#154337" d="M 164.710938 162.621094 C 163.894531 161.957031 163.085938 161.253906 162.300781 160.546875 C 161.992188 160.265625 161.726562 159.9375 161.4375 159.636719 C 161.132812 159.335938 160.890625 158.84375 160.449219 158.738281 C 160.445312 158.726562 160.441406 158.714844 160.433594 158.699219 C 160.230469 159.0625 160.328125 159.503906 160.316406 159.902344 C 160.3125 160.3125 160.296875 160.726562 160.316406 161.136719 C 159.714844 161.195312 159.097656 161.164062 158.511719 161.347656 C 157.941406 161.527344 157.398438 161.824219 156.957031 162.230469 C 156.179688 162.898438 155.808594 163.890625 155.648438 164.875 C 155.621094 165.371094 155.492188 166.234375 155.929688 166.570312 C 155.933594 166.582031 155.9375 166.597656 155.941406 166.609375 C 156.191406 166.4375 156.230469 166.109375 156.378906 165.859375 C 156.605469 165.5 156.855469 165.144531 157.171875 164.859375 C 157.382812 164.671875 157.621094 164.5 157.882812 164.390625 C 158.648438 163.996094 159.515625 163.808594 160.375 163.882812 C 160.398438 164.261719 160.351562 164.636719 160.351562 165.011719 C 160.363281 165.324219 160.242188 165.734375 160.515625 165.960938 C 160.574219 165.910156 160.566406 165.839844 160.601562 165.78125 C 160.65625 165.691406 160.59375 165.605469 160.59375 165.511719 C 160.578125 165.34375 160.570312 165.175781 160.5625 165.007812 C 160.566406 164.648438 160.609375 164.289062 160.59375 163.925781 C 160.601562 163.828125 160.621094 163.6875 160.492188 163.667969 C 160.019531 163.578125 159.535156 163.664062 159.0625 163.710938 C 157.703125 163.898438 156.503906 164.878906 155.9375 166.117188 C 155.882812 165.96875 155.871094 165.804688 155.851562 165.652344 C 155.777344 165.175781 155.898438 164.714844 156.003906 164.253906 C 156.074219 163.945312 156.207031 163.65625 156.359375 163.378906 C 156.492188 163.121094 156.65625 162.875 156.851562 162.660156 C 157.15625 162.316406 157.566406 162.085938 157.964844 161.871094 C 158.3125 161.675781 158.695312 161.554688 159.085938 161.488281 C 159.359375 161.433594 159.652344 161.414062 159.9375 161.40625 C 160.105469 161.371094 160.554688 161.457031 160.566406 161.222656 C 160.574219 160.515625 160.609375 159.804688 160.597656 159.097656 C 161.222656 159.65625 161.726562 160.332031 162.355469 160.886719 C 162.78125 161.320312 163.269531 161.703125 163.726562 162.105469 C 163.941406 162.304688 164.152344 162.519531 164.382812 162.707031 C 163.519531 163.355469 162.648438 164 161.832031 164.710938 C 161.449219 165.042969 161.078125 165.390625 160.730469 165.757812 C 160.617188 165.894531 160.605469 166.054688 160.535156 166.230469 C 160.933594 166.078125 161.167969 165.691406 161.46875 165.410156 C 161.960938 164.957031 162.445312 164.496094 162.972656 164.082031 C 163.511719 163.644531 164.105469 163.285156 164.648438 162.851562 C 164.734375 162.808594 164.804688 162.699219 164.710938 162.621094 Z M 164.710938 162.621094 " fill-opacity="1" fill-rule="nonzero"/></g></svg>